<svg width="16" height="16" viewBox="0 0 16 16" fill="none" xmlns="http://www.w3.org/2000/svg">
<path d="M3.40991 10.2875V12.2045C3.99563 12.9225 4.73388 13.501 5.57106 13.898C6.40824 14.2951 7.32334 14.5007 8.24991 14.5C10.4119 14.5 12.3179 13.402 13.4399 11.7335V9.04651C13.0559 11.568 10.8784 13.5 8.24991 13.5C6.07291 13.5 4.20541 12.175 3.40991 10.2875ZM12.5149 5.18801V4.32701C12.5132 4.1371 12.5444 3.94833 12.6069 3.76901C11.4414 2.63282 9.87757 1.99788 8.24991 2.00001C6.79334 1.99784 5.38213 2.50653 4.26191 3.43751L4.26441 3.46801L4.26491 3.48151V4.83151C4.7574 4.25646 5.36865 3.79496 6.05658 3.47879C6.74452 3.16261 7.4928 2.99927 8.24991 3.00001C10.0069 3.00001 11.5619 3.86301 12.5149 5.18801Z" fill="black"/>
<path d="M12.25 8.25002C12.25 9.31089 11.8286 10.3283 11.0784 11.0785C10.3283 11.8286 9.31087 12.25 8.25 12.25C7.18913 12.25 6.17172 11.8286 5.42157 11.0785C4.67143 10.3283 4.25 9.31089 4.25 8.25002C4.25 7.18916 4.67143 6.17174 5.42157 5.4216C6.17172 4.67145 7.18913 4.25002 8.25 4.25002C9.31087 4.25002 10.3283 4.67145 11.0784 5.4216C11.8286 6.17174 12.25 7.18916 12.25 8.25002ZM8.25 11.75C8.70963 11.75 9.16475 11.6595 9.58939 11.4836C10.014 11.3077 10.3999 11.0499 10.7249 10.7249C11.0499 10.3999 11.3077 10.0141 11.4836 9.58942C11.6595 9.16478 11.75 8.70965 11.75 8.25002C11.75 7.7904 11.6595 7.33527 11.4836 6.91063C11.3077 6.48599 11.0499 6.10016 10.7249 5.77515C10.3999 5.45015 10.014 5.19234 9.58939 5.01645C9.16475 4.84056 8.70963 4.75002 8.25 4.75002C7.32174 4.75002 6.4315 5.11877 5.77513 5.77515C5.11875 6.43153 4.75 7.32177 4.75 8.25002C4.75 9.17828 5.11875 10.0685 5.77513 10.7249C6.4315 11.3813 7.32174 11.75 8.25 11.75ZM14.995 3.97002C14.995 3.52002 14.63 3.15502 14.18 3.15502C13.53 3.15502 13.01 3.68002 13.015 4.32502V7.10002C13.015 7.72652 13.378 8.28752 13.94 8.54152V12.85C13.94 13.11 14.15 13.32 14.41 13.32H14.525C14.785 13.32 14.995 13.11 14.995 12.85V3.97002ZM3.41 3.15502C3.31983 3.15502 3.23335 3.19085 3.16958 3.25461C3.10582 3.31837 3.07 3.40485 3.07 3.49502V4.84003C3.07 4.94003 2.99 5.01502 2.895 5.01502C2.795 5.01502 2.72 4.93503 2.72 4.84003V3.51002C2.72 3.32502 2.575 3.16002 2.39 3.15502C2.195 3.15002 2.035 3.30502 2.035 3.49502V4.84003C2.035 4.94003 1.955 5.01502 1.86 5.01502C1.76 5.01502 1.685 4.93503 1.685 4.84003V3.51002C1.685 3.32502 1.54 3.16002 1.355 3.15502C1.16 3.15002 1 3.30502 1 3.49502V5.78502C1 6.23602 1.2185 6.63853 1.5545 6.88953C1.855 7.05903 1.855 7.83502 1.855 7.83502V12.845C1.855 13.105 2.065 13.315 2.325 13.315H2.44C2.7 13.315 2.91 13.105 2.91 12.845V7.83502C2.91 7.83502 2.91 7.08953 3.2105 6.88953C3.38242 6.76119 3.52205 6.59455 3.6183 6.40282C3.71456 6.21109 3.76479 5.99956 3.765 5.78502V3.49502C3.75994 3.40391 3.72046 3.31812 3.65456 3.25501C3.58866 3.19189 3.50125 3.15615 3.41 3.15502Z" fill="black"/>
</svg>
