<svg width="25" height="25" viewBox="0 0 25 25" fill="none" xmlns="http://www.w3.org/2000/svg">
<path d="M11.1921 4.30908H4.19208C3.66164 4.30908 3.15294 4.5198 2.77786 4.89487C2.40279 5.26994 2.19208 5.77865 2.19208 6.30908V20.3091C2.19208 20.8395 2.40279 21.3482 2.77786 21.7233C3.15294 22.0984 3.66164 22.3091 4.19208 22.3091H18.1921C18.7225 22.3091 19.2312 22.0984 19.6063 21.7233C19.9814 21.3482 20.1921 20.8395 20.1921 20.3091V13.3091" stroke="black" stroke-width="2" stroke-linecap="round" stroke-linejoin="round"/>
<path d="M18.6921 2.80931C19.0899 2.41148 19.6295 2.18799 20.1921 2.18799C20.7547 2.18799 21.2943 2.41148 21.6921 2.80931C22.0899 3.20713 22.3134 3.7467 22.3134 4.30931C22.3134 4.87192 22.0899 5.41148 21.6921 5.80931L12.1921 15.3093L8.19208 16.3093L9.19208 12.3093L18.6921 2.80931Z" stroke="black" stroke-width="2" stroke-linecap="round" stroke-linejoin="round"/>
</svg>
