<svg width="24" height="22" viewBox="0 0 24 22" fill="none" xmlns="http://www.w3.org/2000/svg">
<path d="M16.0819 1.00074C14.6495 0.979973 13.1558 1.39592 11.9982 2.56379C10.8316 1.3982 9.32366 1.00065 7.92999 1.00065C4.46695 1.00065 1 3.87489 1 7.94257C1 11.8645 3.50412 15.1297 5.98085 17.3495C7.23402 18.4727 8.51932 19.3644 9.56313 19.9784C10.0847 20.2853 10.5548 20.528 10.9384 20.6971C11.1296 20.7813 11.3089 20.8516 11.4687 20.9024C11.6076 20.9465 11.8035 21 12 21C12.1965 21 12.3924 20.9465 12.5314 20.9024C12.6911 20.8516 12.8705 20.7813 13.0616 20.6971C13.4452 20.528 13.9153 20.2853 14.4369 19.9784C15.4807 19.3644 16.766 18.4727 18.0192 17.3495C20.4959 15.1297 23 11.8645 23 7.94257C23 3.86525 19.525 1.05064 16.0819 1.00074Z" stroke="black" stroke-width="1.5" stroke-linecap="round" stroke-linejoin="round"/>
</svg>
