<svg width="18" height="16" viewBox="0 0 18 16" fill="none" xmlns="http://www.w3.org/2000/svg">
<path d="M12.094 0.500557C11.0088 0.484854 9.87717 0.799427 9.00018 1.68265C8.1164 0.801146 6.97395 0.500492 5.91812 0.500492C3.29452 0.500492 0.667969 2.6742 0.667969 5.75047C0.667969 8.71655 2.56509 11.1859 4.44145 12.8647C5.39085 13.7141 6.36459 14.3884 7.15537 14.8529C7.55052 15.0849 7.90669 15.2685 8.1973 15.3964C8.3421 15.4601 8.47797 15.5132 8.599 15.5516C8.70429 15.585 8.8527 15.6254 9.00155 15.6254C9.1504 15.6254 9.29881 15.585 9.4041 15.5516C9.52512 15.5132 9.661 15.4601 9.8058 15.3964C10.0964 15.2685 10.4526 15.0849 10.8477 14.8529C11.6385 14.3884 12.6122 13.7141 13.5616 12.8647C15.438 11.1859 17.3351 8.71655 17.3351 5.75047C17.3351 2.66691 14.7025 0.538299 12.094 0.500557Z" fill="#F74440"/>
</svg>
