<svg width="23" height="24" viewBox="0 0 23 24" fill="none" xmlns="http://www.w3.org/2000/svg">
<path d="M22 11.3136L12.0717 21.1231C10.8554 22.3249 9.20574 23 7.48564 23C5.76554 23 4.11589 22.3249 2.8996 21.1231C1.68331 19.9214 1 18.2915 1 16.592C1 14.8924 1.68331 13.2625 2.8996 12.0608L12.8279 2.25125C13.6388 1.45009 14.7385 1 15.8853 1C17.032 1 18.1318 1.45009 18.9426 2.25125C19.7535 3.05241 20.209 4.13902 20.209 5.27203C20.209 6.40504 19.7535 7.49165 18.9426 8.29281L9.00352 18.1023C8.59809 18.5029 8.0482 18.728 7.47484 18.728C6.90147 18.728 6.35159 18.5029 5.94616 18.1023C5.54073 17.7018 5.31296 17.1585 5.31296 16.592C5.31296 16.0254 5.54073 15.4821 5.94616 15.0816L15.1182 6.02989" stroke="black" stroke-width="1.5" stroke-linecap="round" stroke-linejoin="round"/>
</svg>
