<svg width="26" height="27" viewBox="0 0 26 27" fill="none" xmlns="http://www.w3.org/2000/svg">
<path d="M10.4717 2.25195L11.1104 2.26562C16.0953 2.4309 17.9869 3.95459 18.4775 7.98926L18.5322 8.50586C18.5734 8.96971 18.2444 9.3808 17.7979 9.42383C17.351 9.4666 16.9553 9.12516 16.9141 8.66113C16.9072 8.58344 16.8993 8.50698 16.8916 8.43164L16.8398 7.99219C16.4934 5.44184 15.5092 4.37663 12.6523 4.05273L12.1592 4.00586L11.6289 3.97168L11.0625 3.94922C10.9649 3.94651 10.8655 3.94416 10.7646 3.94238L10.1396 3.9375L9.34082 3.94336L8.84473 3.9541L8.37598 3.97168L7.93359 3.99707L7.51758 4.03125C7.4505 4.03779 7.38434 4.04535 7.31934 4.05273L6.94043 4.10254C6.87937 4.11178 6.81883 4.12162 6.75977 4.13184L6.41797 4.19922C4.65207 4.59279 3.86292 5.54148 3.51758 7.74219L3.45801 8.16992L3.4082 8.62793L3.36621 9.11719L3.33301 9.63867L3.30762 10.1934L3.28027 11.0908L3.26562 12.0693L3.25977 13.1318L3.26562 14.916L3.28027 15.8818L3.30566 16.7695L3.33105 17.3184L3.36328 17.8359L3.40332 18.3213L3.45117 18.7754L3.50879 19.2012C3.51916 19.2694 3.5298 19.3365 3.54102 19.4023L3.61426 19.7852C4.03149 21.752 4.92258 22.5597 6.79883 22.875L7.16211 22.9287C7.22451 22.9367 7.28814 22.944 7.35254 22.9512L7.75293 22.9893C7.82143 22.9948 7.89132 23.0001 7.96191 23.0049L8.39844 23.0293L8.8623 23.0469L9.35254 23.0576L10.1396 23.0625L10.7646 23.0576C10.8655 23.0558 10.9649 23.0535 11.0625 23.0508L11.6289 23.0283L12.1592 22.9941L12.6523 22.9473C15.5092 22.6234 16.4934 21.5582 16.8398 19.0078L16.8916 18.5693L16.9141 18.3389C16.9553 17.8748 17.351 17.5334 17.7979 17.5762C18.2444 17.6192 18.5734 18.0303 18.5322 18.4941L18.4775 19.0107C17.9869 23.0454 16.0953 24.5691 11.1104 24.7344L10.4717 24.748L10.1396 24.75C10.0386 24.75 9.93855 24.7497 9.83984 24.749L9.26172 24.7412L8.70996 24.7246C8.62038 24.7211 8.5317 24.7172 8.44434 24.7129L7.93359 24.6816L7.44727 24.6396L6.9873 24.5869L6.55078 24.5225C4.00557 24.0974 2.74407 22.9902 2.14258 20.5059L2.04883 20.0791C2.00467 19.8592 1.96456 19.6296 1.92871 19.3896L1.8623 18.8955L1.80566 18.374L1.75879 17.8232C1.75166 17.7291 1.7447 17.6337 1.73828 17.5371L1.7041 16.9424L1.67676 16.3164L1.65723 15.6602L1.64355 14.9707L1.63477 13.876L1.63672 12.7559L1.64941 11.6992L1.67578 10.7139L1.70215 10.0947L1.73535 9.50586L1.77734 8.94629C1.78498 8.85536 1.79241 8.76534 1.80078 8.67676L1.85547 8.15918L1.91992 7.66895C2.38317 4.48996 3.52972 3.08773 6.18164 2.5459L6.59082 2.4707L7.02344 2.4082C7.09733 2.39875 7.17216 2.38937 7.24805 2.38086L7.7168 2.33594L8.20996 2.30078C8.2942 2.29576 8.37946 2.29035 8.46582 2.28613L8.99707 2.26562C9.08772 2.26293 9.17961 2.26077 9.27246 2.25879L9.84375 2.25098L10.4717 2.25195ZM19.8613 9.75977C20.1492 9.45994 20.6005 9.43147 20.9189 9.67578L21.0098 9.75781L24.1816 13.0381C24.1853 13.0419 24.1878 13.047 24.1914 13.0508C24.2175 13.0789 24.2415 13.109 24.2637 13.1406C24.2693 13.1486 24.2759 13.1559 24.2812 13.1641C24.3013 13.1949 24.3179 13.2281 24.334 13.2617C24.3413 13.277 24.3491 13.292 24.3555 13.3076C24.3682 13.3389 24.3786 13.3712 24.3877 13.4043C24.392 13.4199 24.396 13.4354 24.3994 13.4512C24.4071 13.4869 24.4128 13.5233 24.416 13.5605C24.4173 13.5755 24.4174 13.5905 24.418 13.6055C24.4183 13.6155 24.4199 13.6256 24.4199 13.6357C24.4199 13.6435 24.4172 13.6515 24.417 13.6592C24.416 13.6972 24.4132 13.7348 24.4072 13.7725C24.405 13.7866 24.4023 13.8005 24.3994 13.8145C24.3923 13.8486 24.3833 13.8819 24.3721 13.915C24.3667 13.9309 24.3608 13.9465 24.3545 13.9619C24.3418 13.9934 24.3271 14.0237 24.3105 14.0537C24.3032 14.0671 24.2952 14.0799 24.2871 14.0928C24.2778 14.1077 24.2711 14.1243 24.2607 14.1387L24.2314 14.1729C24.2219 14.1848 24.2123 14.1966 24.2021 14.208L24.1816 14.2334L21.0098 17.5146C20.6918 17.8432 20.1779 17.8417 19.8613 17.5117C19.5735 17.2116 19.5476 16.7429 19.7842 16.4131L19.8633 16.3184L21.6406 14.4795H10.5625C10.1139 14.4793 9.75 14.1016 9.75 13.6357C9.75012 13.2088 10.0558 12.8559 10.4521 12.7998L10.5625 12.792H21.6416L19.8633 10.9531C19.5743 10.6542 19.5469 10.1853 19.7822 9.85449L19.8613 9.75977Z" fill="#191B27"/>
</svg>
