<svg width="24" height="23" viewBox="0 0 24 23" fill="none" xmlns="http://www.w3.org/2000/svg">
<path d="M20.5556 10.45H3.44444C2.09441 10.45 1 11.3902 1 12.55V19.9C1 21.0597 2.09441 22 3.44444 22H20.5556C21.9056 22 23 21.0597 23 19.9V12.55C23 11.3902 21.9056 10.45 20.5556 10.45Z" stroke="black" stroke-width="1.5" stroke-linecap="round" stroke-linejoin="round"/>
<path d="M5.88867 10.45V6.25C5.88867 4.85761 6.53252 3.52226 7.67857 2.53769C8.82463 1.55312 10.379 1 11.9998 1C13.6206 1 15.1749 1.55312 16.321 2.53769C17.467 3.52226 18.1109 4.85761 18.1109 6.25V10.45" stroke="black" stroke-width="1.5" stroke-linecap="round" stroke-linejoin="round"/>
</svg>
