<svg width="24" height="23" viewBox="0 0 24 23" fill="none" xmlns="http://www.w3.org/2000/svg">
<path d="M7.46875 11.3635C7.47319 11.3166 7.49601 11.2656 7.50944 11.221C7.5302 11.152 7.53337 11.0782 7.56294 11.0131C7.63187 10.8613 7.68458 10.705 7.76414 10.556C7.87269 10.3526 7.99803 10.2212 8.20045 10.118C8.29849 10.068 8.41728 10.0667 8.51016 10.016C8.62112 9.95551 8.75857 9.97895 8.87638 9.94436C9.0152 9.90361 9.19426 9.93175 9.31344 10.0192C9.50019 10.1563 9.68868 10.2784 9.78215 10.5042C9.82999 10.6198 9.84045 10.752 9.90271 10.8554C9.93131 10.9029 9.91025 10.9995 9.91025 11.0545C9.91025 11.1298 9.90503 11.1948 9.93738 11.2632" stroke="#191B27" stroke-width="1.5" stroke-linecap="round"/>
<path d="M13.8359 11.5122C13.8404 11.4653 13.8632 11.4143 13.8766 11.3697C13.8974 11.3007 13.9006 11.2269 13.9301 11.1618C13.9991 11.01 14.0518 10.8537 14.1313 10.7047C14.2399 10.5013 14.3652 10.3699 14.5676 10.2667C14.6657 10.2166 14.7845 10.2154 14.8773 10.1647C14.9883 10.1042 15.1258 10.1276 15.2436 10.093C15.3824 10.0523 15.5614 10.0804 15.6806 10.1679C15.8674 10.305 16.0559 10.4271 16.1493 10.6529C16.1972 10.7685 16.2076 10.9007 16.2699 11.0041C16.2985 11.0516 16.2774 11.1482 16.2774 11.2032C16.2774 11.2785 16.2722 11.3435 16.3046 11.4119" stroke="#191B27" stroke-width="1.5" stroke-linecap="round"/>
<path d="M7.09375 17.0735C7.1224 17.2097 7.46772 17.2292 7.56499 17.2579C7.79846 17.3269 8.04225 17.5445 8.28057 17.5715C8.43261 17.5887 8.55942 17.7045 8.7169 17.7283C8.93073 17.7606 9.14031 17.7887 9.35395 17.8298C9.70845 17.8979 10.0665 17.937 10.423 18.0096C10.7213 18.0704 11.0337 18.0429 11.3349 18.0788C11.7024 18.1225 12.0783 18.1726 12.4432 18.2356C13.3777 18.3968 14.2993 18.1963 15.1877 17.8989C15.7452 17.7123 16.3322 17.653 16.8327 17.3225" stroke="#191B27" stroke-width="1.5" stroke-linecap="round"/>
<path d="M16.6748 0.75C17.1558 0.75 17.6152 1.17492 17.6152 1.78711C17.6151 2.39911 17.1557 2.82324 16.6748 2.82324C16.194 2.82312 15.7346 2.39902 15.7344 1.78711C15.7344 1.175 16.1939 0.750122 16.6748 0.75Z" stroke="#191B27" stroke-width="1.5"/>
<path d="M7.28223 0.75C7.76319 0.75 8.22266 1.17492 8.22266 1.78711C8.22248 2.39911 7.7631 2.82324 7.28223 2.82324C6.80143 2.82312 6.34198 2.39902 6.3418 1.78711C6.3418 1.175 6.80134 0.750122 7.28223 0.75Z" stroke="#191B27" stroke-width="1.5"/>
<line x1="7.46875" y1="3.17822" x2="7.46875" y2="5.1635" stroke="#191B27" stroke-width="1.5"/>
<line x1="16.8613" y1="3.17822" x2="16.8613" y2="5.1635" stroke="#191B27" stroke-width="1.5"/>
<path d="M2.09133 17.3049C1.181 17.0816 0.504515 16.2623 0.503694 15.283L0.501707 12.9109C0.500887 11.9316 1.17613 11.1121 2.08595 10.8869L2.09133 17.3049Z" stroke="#191B27"/>
<path d="M21.8711 10.8845C22.806 11.1096 23.501 11.9499 23.501 12.9539V15.238C23.501 16.2419 22.8059 17.0812 21.8711 17.3064V10.8845Z" stroke="#191B27"/>
<path d="M8.21094 5.51489H15.7471C18.6466 5.51489 20.9971 7.8654 20.9971 10.7649V16.6321C20.9971 19.5316 18.6466 21.8821 15.7471 21.8821H8.21094C5.31144 21.8821 2.96094 19.5316 2.96094 16.6321V10.7649C2.96094 7.8654 5.31144 5.51489 8.21094 5.51489Z" stroke="#191B27" stroke-width="1.5"/>
</svg>
